<svg xmlns="http://www.w3.org/2000/svg" xmlns:xlink="http://www.w3.org/1999/xlink" viewBox="0 0 2241.67 1438.89" width="2241.67"  height="1438.89" ><defs><style>.cls-1{fill:none;}.cls-2{fill:url(#linear-gradient);}.cls-3{fill:#bdd0fb;}.cls-4{fill:url(#linear-gradient-2);}.cls-5{fill:url(#linear-gradient-3);}.cls-6{fill:url(#linear-gradient-4);}.cls-7{fill:#7d97f4;}.cls-8{fill:url(#linear-gradient-5);}.cls-9{opacity:0.73;}.cls-10,.cls-23,.cls-65{fill:#fff;}.cls-11{fill:url(#linear-gradient-6);}.cls-12{fill:url(#linear-gradient-7);}.cls-13{fill:url(#linear-gradient-8);}.cls-14{fill:url(#linear-gradient-9);}.cls-15{fill:url(#linear-gradient-10);}.cls-16{fill:url(#linear-gradient-11);}.cls-17{fill:url(#linear-gradient-12);}.cls-18{fill:url(#linear-gradient-13);}.cls-19{fill:url(#linear-gradient-14);}.cls-20{clip-path:url(#clip-path);}.cls-21{fill:url(#linear-gradient-15);}.cls-22{fill:url(#linear-gradient-16);}.cls-23{opacity:0.67;}.cls-24{fill:#91b3fa;}.cls-25{fill:#dce5fe;}.cls-26{fill:url(#linear-gradient-17);}.cls-27{fill:url(#linear-gradient-18);}.cls-28{fill:url(#linear-gradient-19);}.cls-29{fill:url(#linear-gradient-20);}.cls-30{fill:url(#linear-gradient-21);}.cls-31{fill:url(#linear-gradient-22);}.cls-32{fill:url(#linear-gradient-23);}.cls-33{fill:url(#linear-gradient-24);}.cls-34{fill:url(#linear-gradient-25);}.cls-35{fill:url(#linear-gradient-26);}.cls-36{fill:url(#linear-gradient-27);}.cls-37{fill:url(#linear-gradient-28);}.cls-38{fill:url(#linear-gradient-29);}.cls-39{fill:url(#linear-gradient-30);}.cls-40{fill:url(#linear-gradient-31);}.cls-41{fill:url(#linear-gradient-32);}.cls-42{fill:url(#linear-gradient-33);}.cls-43{fill:url(#linear-gradient-34);}.cls-44{fill:url(#linear-gradient-35);}.cls-45{fill:url(#linear-gradient-36);}.cls-46{fill-rule:evenodd;fill:url(#linear-gradient-37);}.cls-47{fill:url(#linear-gradient-38);}.cls-48,.cls-65{opacity:0.76;}.cls-49{fill:url(#linear-gradient-39);}.cls-50{fill:url(#linear-gradient-40);}.cls-51{fill:url(#linear-gradient-41);}.cls-52{fill:url(#linear-gradient-42);}.cls-53{fill:url(#linear-gradient-43);}.cls-54{fill:url(#linear-gradient-44);}.cls-55{fill:url(#linear-gradient-45);}.cls-56{fill:url(#linear-gradient-46);}.cls-57{fill:url(#linear-gradient-47);}.cls-58{fill:url(#linear-gradient-48);}.cls-59{fill:url(#linear-gradient-49);}.cls-60{fill:url(#linear-gradient-50);}.cls-61{fill:url(#linear-gradient-51);}.cls-62{fill:url(#linear-gradient-52);}.cls-63{fill:url(#linear-gradient-53);}.cls-64{fill:url(#linear-gradient-54);}.cls-66{fill:url(#linear-gradient-55);}.cls-67{fill:url(#linear-gradient-56);}.cls-68{fill:url(#linear-gradient-57);}.cls-69{fill:url(#linear-gradient-58);}.cls-70{fill:url(#linear-gradient-59);}.cls-71{fill:url(#linear-gradient-60);}.cls-72{fill:url(#linear-gradient-61);}.cls-73{fill:url(#linear-gradient-62);}.cls-74{fill:url(#linear-gradient-63);}.cls-75{fill:url(#linear-gradient-64);}.cls-76{fill:url(#linear-gradient-65);}.cls-77{fill:url(#linear-gradient-66);}.cls-78{fill:url(#linear-gradient-67);}.cls-79{fill:url(#linear-gradient-68);}.cls-80{fill:url(#linear-gradient-69);}.cls-81{fill:url(#linear-gradient-70);}.cls-82{fill:url(#linear-gradient-71);}.cls-83{fill:url(#linear-gradient-72);}</style><linearGradient id="linear-gradient" x1="3778.7" y1="737.25" x2="617.51" y2="697.73" gradientUnits="userSpaceOnUse"><stop offset="0" stop-color="#dae3fe"/><stop offset="1" stop-color="#e9effd"/></linearGradient><linearGradient id="linear-gradient-2" x1="1492.16" y1="193.68" x2="1423.23" y2="475.38" gradientUnits="userSpaceOnUse"><stop offset="0" stop-color="#fe7062"/><stop offset="1" stop-color="#ff928e"/></linearGradient><linearGradient id="linear-gradient-3" x1="1760.22" y1="627.17" x2="1812.1" y2="627.17" xlink:href="#linear-gradient-2"/><linearGradient id="linear-gradient-4" x1="1907.31" y1="189.87" x2="1953.32" y2="189.87" gradientUnits="userSpaceOnUse"><stop offset="0" stop-color="#4042e2"/><stop offset="1" stop-color="#4f52ff"/></linearGradient><linearGradient id="linear-gradient-5" x1="1893.74" y1="674.86" x2="2058.38" y2="674.86" xlink:href="#linear-gradient-4"/><linearGradient id="linear-gradient-6" x1="1532.94" y1="470.33" x2="1654.59" y2="307.26" xlink:href="#linear-gradient-4"/><linearGradient id="linear-gradient-7" x1="1585.74" y1="381.91" x2="1610.23" y2="381.91" xlink:href="#linear-gradient"/><linearGradient id="linear-gradient-8" x1="1592.3" y1="367.52" x2="1631.4" y2="367.52" xlink:href="#linear-gradient"/><linearGradient id="linear-gradient-9" x1="1589.13" y1="356.69" x2="1650.22" y2="356.69" xlink:href="#linear-gradient"/><linearGradient id="linear-gradient-10" x1="1585.98" y1="345.87" x2="1668.95" y2="345.87" xlink:href="#linear-gradient"/><linearGradient id="linear-gradient-11" x1="124.17" y1="1427.08" x2="481.16" y2="948.19" gradientUnits="userSpaceOnUse"><stop offset="0" stop-color="#09005d"/><stop offset="1" stop-color="#1a0f91"/></linearGradient><linearGradient id="linear-gradient-12" x1="662.66" y1="308.98" x2="1259.09" y2="1371.25" xlink:href="#linear-gradient-4"/><linearGradient id="linear-gradient-13" x1="2105.04" y1="48.67" x2="1137.04" y2="708.67" xlink:href="#linear-gradient-11"/><linearGradient id="linear-gradient-14" x1="1394.88" y1="596.61" x2="1147.2" y2="672.07" xlink:href="#linear-gradient-4"/><clipPath id="clip-path"><path class="cls-1" d="M1232.23,1105.07c-9-9.17-28.66-44.55-45.5-136-16.27-88.4-25.24-203.07-25.24-322.87s9-234.48,25.24-322.88c16.84-91.48,36.49-126.86,45.5-136,9,9.17,28.66,44.55,45.5,136,16.28,88.4,144.71,203.07,144.71,322.88S1294,880.64,1277.73,969C1260.89,1060.52,1241.25,1095.9,1232.23,1105.07Z"/></clipPath><linearGradient id="linear-gradient-15" x1="1442.3" y1="328.68" x2="1137.55" y2="755.33" xlink:href="#linear-gradient-2"/><linearGradient id="linear-gradient-16" x1="274.51" y1="881.57" x2="248.39" y2="224.18" xlink:href="#linear-gradient-11"/><linearGradient id="linear-gradient-17" x1="332.7" y1="1347.95" x2="115.29" y2="1584.44" xlink:href="#linear-gradient-4"/><linearGradient id="linear-gradient-18" x1="262.13" y1="1365.52" x2="281.44" y2="1365.52" gradientUnits="userSpaceOnUse"><stop offset="0" stop-color="#ff928e"/><stop offset="1" stop-color="#feb3b1"/></linearGradient><linearGradient id="linear-gradient-19" x1="216.34" y1="1217.85" x2="280.19" y2="1217.85" xlink:href="#linear-gradient-11"/><linearGradient id="linear-gradient-20" x1="283.93" y1="1303.11" x2="66.51" y2="1539.6" xlink:href="#linear-gradient-4"/><linearGradient id="linear-gradient-21" x1="192.53" y1="1364.53" x2="209.21" y2="1364.53" xlink:href="#linear-gradient-18"/><linearGradient id="linear-gradient-22" x1="174.56" y1="1215.76" x2="265.21" y2="1215.76" xlink:href="#linear-gradient-11"/><linearGradient id="linear-gradient-23" x1="234.06" y1="997.7" x2="112.56" y2="1279.68" xlink:href="#linear-gradient-2"/><linearGradient id="linear-gradient-24" x1="466.07" y1="736.27" x2="336.07" y2="938.27" xlink:href="#linear-gradient-18"/><linearGradient id="linear-gradient-25" x1="3002.99" y1="6141.1" x2="2872.99" y2="6343.1" gradientTransform="matrix(-1, 0, 0, 1, 6898, 0)" xlink:href="#linear-gradient-18"/><linearGradient id="linear-gradient-26" x1="464.58" y1="691.02" x2="433.58" y2="823.02" xlink:href="#linear-gradient-18"/><linearGradient id="linear-gradient-27" x1="159.9" y1="965.75" x2="38.4" y2="1247.73" xlink:href="#linear-gradient-2"/><linearGradient id="linear-gradient-28" x1="125.71" y1="1001.45" x2="250.56" y2="1001.45" xlink:href="#linear-gradient-18"/><linearGradient id="linear-gradient-29" x1="331.32" y1="867.59" x2="316.7" y2="931.8" xlink:href="#linear-gradient-4"/><linearGradient id="linear-gradient-30" x1="323.67" y1="894.53" x2="316.68" y2="936.48" xlink:href="#linear-gradient-4"/><linearGradient id="linear-gradient-31" x1="241.29" y1="988.36" x2="280.19" y2="988.36" xlink:href="#linear-gradient-18"/><linearGradient id="linear-gradient-32" x1="255.53" y1="836.93" x2="229.53" y2="942.93" xlink:href="#linear-gradient-18"/><linearGradient id="linear-gradient-33" x1="248.88" y1="750.83" x2="261.26" y2="831.64" xlink:href="#linear-gradient-18"/><linearGradient id="linear-gradient-34" x1="-7285.82" y1="-1732.04" x2="-7270.39" y2="-1644.03" gradientTransform="matrix(0.75, -0.67, 0.67, 0.75, 6788.27, -2790.96)" xlink:href="#linear-gradient-4"/><linearGradient id="linear-gradient-35" x1="230.8" y1="753.6" x2="243.17" y2="834.41" xlink:href="#linear-gradient-18"/><linearGradient id="linear-gradient-36" x1="1469.52" y1="636.57" x2="1611.66" y2="636.57" xlink:href="#linear-gradient"/><linearGradient id="linear-gradient-37" x1="1518.32" y1="638.39" x2="1575.46" y2="638.39" xlink:href="#linear-gradient"/><linearGradient id="linear-gradient-38" x1="1822.36" y1="146.13" x2="2055.65" y2="846.03" xlink:href="#linear-gradient-2"/><linearGradient id="linear-gradient-39" x1="1976.78" y1="779.16" x2="2121.78" y2="1027.16" xlink:href="#linear-gradient-11"/><linearGradient id="linear-gradient-40" x1="-1309.03" y1="929.02" x2="-1335.73" y2="1027.84" gradientTransform="matrix(-1, 0, 0, 1, 602.39, 0)" xlink:href="#linear-gradient-18"/><linearGradient id="linear-gradient-41" x1="2871.59" y1="588.71" x2="2855.79" y2="79.19" gradientTransform="matrix(-0.99, -0.12, -0.12, 0.99, 4950.1, 469.34)" gradientUnits="userSpaceOnUse"><stop offset="0" stop-color="#cb236d"/><stop offset="1" stop-color="#4c246d"/></linearGradient><linearGradient id="linear-gradient-42" x1="1973.68" y1="867.89" x2="2008.68" y2="948.89" xlink:href="#linear-gradient-18"/><linearGradient id="linear-gradient-43" x1="-3287.42" y1="-3749.63" x2="-3332.42" y2="-3698.63" gradientTransform="translate(9645.5 -3805.92) rotate(-16.09)" xlink:href="#linear-gradient-18"/><linearGradient id="linear-gradient-44" x1="1944.1" y1="798.26" x2="2089.1" y2="1046.27" xlink:href="#linear-gradient-11"/><linearGradient id="linear-gradient-45" x1="-3271.55" y1="-3735.64" x2="-3316.55" y2="-3684.64" gradientTransform="translate(9645.5 -3805.92) rotate(-16.09)" xlink:href="#linear-gradient-18"/><linearGradient id="linear-gradient-46" x1="1981.57" y1="1285.89" x2="1940.57" y2="1430.89" xlink:href="#linear-gradient-18"/><linearGradient id="linear-gradient-47" x1="2981.62" y1="1360.1" x2="3025.1" y2="1360.1" gradientTransform="matrix(-1, -0.01, -0.01, 1, 5045.65, 40.08)" xlink:href="#linear-gradient-11"/><linearGradient id="linear-gradient-48" x1="2014.86" y1="1109.3" x2="1992.85" y2="1317.3" xlink:href="#linear-gradient-18"/><linearGradient id="linear-gradient-49" x1="3021.93" y1="1367.95" x2="3073.76" y2="1367.95" gradientTransform="matrix(-1, -0.01, -0.01, 1, 5045.65, 40.08)" xlink:href="#linear-gradient-11"/><linearGradient id="linear-gradient-50" x1="3093.72" y1="1019.83" x2="2969.55" y2="1296.63" gradientTransform="matrix(-1, -0.01, -0.01, 1, 5045.65, 40.08)" xlink:href="#linear-gradient-11"/><linearGradient id="linear-gradient-51" x1="2025.83" y1="876.61" x2="1956.83" y2="1005.61" xlink:href="#linear-gradient-18"/><linearGradient id="linear-gradient-52" x1="-8619.15" y1="113.47" x2="-8638.5" y2="133.92" gradientTransform="matrix(0.99, -0.16, 0.21, 1.26, 10384.58, -607.11)" gradientUnits="userSpaceOnUse"><stop offset="0" stop-color="#2b3582"/><stop offset="1" stop-color="#150e42"/></linearGradient><linearGradient id="linear-gradient-53" x1="-1279.51" y1="939.46" x2="-1293.59" y2="991.55" gradientTransform="matrix(-1, 0, 0, 1, 602.39, 0)" xlink:href="#linear-gradient-18"/><linearGradient id="linear-gradient-54" x1="1683.12" y1="736.04" x2="1820.63" y2="1148.59" xlink:href="#linear-gradient-2"/><linearGradient id="linear-gradient-55" x1="-2079.64" y1="1529.25" x2="-2077.01" y2="1450.34" gradientTransform="matrix(-1, 0, 0, 1, -688.12, 0)" xlink:href="#linear-gradient-4"/><linearGradient id="linear-gradient-56" x1="-1985.89" y1="1327.29" x2="-2148.47" y2="1454.96" gradientTransform="matrix(-1, 0, 0, 1, -688.12, 0)" xlink:href="#linear-gradient-11"/><linearGradient id="linear-gradient-57" x1="3206.49" y1="1329.25" x2="3197.67" y2="1406.26" gradientTransform="translate(-1811.84)" xlink:href="#linear-gradient-18"/><linearGradient id="linear-gradient-58" x1="3356.32" y1="1365.18" x2="3199.09" y2="1488.64" gradientTransform="translate(-1811.84)" xlink:href="#linear-gradient-11"/><linearGradient id="linear-gradient-59" x1="3310.98" y1="1578.05" x2="3313.61" y2="1499.14" gradientTransform="translate(-1811.84)" xlink:href="#linear-gradient-4"/><linearGradient id="linear-gradient-60" x1="3299.46" y1="1339.1" x2="3291.21" y2="1411.15" gradientTransform="translate(-1811.84)" xlink:href="#linear-gradient-18"/><linearGradient id="linear-gradient-61" x1="1436.66" y1="1336.8" x2="1446.57" y2="1026.49" xlink:href="#linear-gradient-11"/><linearGradient id="linear-gradient-62" x1="1426.73" y1="856.21" x2="1414.67" y2="1119.73" xlink:href="#linear-gradient-4"/><linearGradient id="linear-gradient-63" x1="1421.13" y1="812.17" x2="1420.63" y2="880.67" xlink:href="#linear-gradient-18"/><linearGradient id="linear-gradient-64" x1="1344.8" y1="852.46" x2="1332.73" y2="1115.97" xlink:href="#linear-gradient-4"/><linearGradient id="linear-gradient-65" x1="1410.58" y1="1042.94" x2="1340.15" y2="1103.09" gradientUnits="userSpaceOnUse"><stop offset="0" stop-color="#f9b776"/><stop offset="1" stop-color="#f47960"/></linearGradient><linearGradient id="linear-gradient-66" x1="1526.99" y1="860.8" x2="1514.92" y2="1124.32" xlink:href="#linear-gradient-4"/><linearGradient id="linear-gradient-67" x1="1452.96" y1="1046.18" x2="1492.57" y2="1085.8" xlink:href="#linear-gradient-65"/><linearGradient id="linear-gradient-68" x1="1460.67" y1="774.29" x2="1411.67" y2="815.79" xlink:href="#linear-gradient-18"/><linearGradient id="linear-gradient-69" x1="-2739.29" y1="-291.37" x2="-2669.24" y2="-291.37" gradientTransform="translate(3498.5 -971.67) rotate(-46.73)" xlink:href="#linear-gradient-11"/><linearGradient id="linear-gradient-70" x1="-2780.39" y1="-248.57" x2="-2733.35" y2="-296.83" gradientTransform="translate(3498.5 -971.67) rotate(-46.73)" xlink:href="#linear-gradient-18"/><linearGradient id="linear-gradient-71" x1="1306.95" y1="1029.2" x2="1320.55" y2="1029.2" xlink:href="#linear-gradient-18"/><linearGradient id="linear-gradient-72" x1="-4532.33" y1="1029.2" x2="-4518.73" y2="1029.2" gradientTransform="matrix(-1, 0, 0, 1, -2975.78, 0)" xlink:href="#linear-gradient-18"/></defs><title>svg</title><g id="Illustration"><path class="cls-2" d="M655.15,1323.87c242.35,7.86,504.61-35.65,724.52,5.63,161.22,30.26,342,73.58,506,33.27,169.43-41.64,382.88-185.09,332.84-387.27C2202,909,2140,886.23,2103.33,835.1c-46.76-65.25-31.35-130.25-7-202.21,40.26-119.22,102.36-269.13,51.29-393.55-54.53-132.89-219.84-97.58-323.17-52.15-137.89,60.63-260.45,197.37-425,151.63-116.67-32.43-213.76-116.66-314.29-179.75C931.2,62.5,443.18-33,274.71,81.24,89.94,206.51,408.63,333.48,209.21,448.16,65.23,531-11.33,753.79,28.35,962.5,78.84,1227.86,428.34,1316.51,655.15,1323.87Z"/><path class="cls-3" d="M187.22,266.13h-81.7A10.16,10.16,0,0,1,95.36,256h0a10.16,10.16,0,0,1,10.16-10.16h81.7A10.16,10.16,0,0,1,197.38,256h0A10.16,10.16,0,0,1,187.22,266.13Z"/><path class="cls-3" d="M497.49,266.13H234.89A10.16,10.16,0,0,1,224.73,256h0a10.16,10.16,0,0,1,10.16-10.16h262.6A10.16,10.16,0,0,1,507.65,256h0A10.16,10.16,0,0,1,497.49,266.13Z"/><path class="cls-3" d="M529,305.93H266.44a10.16,10.16,0,0,1-10.16-10.16h0a10.16,10.16,0,0,1,10.16-10.16H529a10.16,10.16,0,0,1,10.16,10.16h0A10.16,10.16,0,0,1,529,305.93Z"/><path class="cls-3" d="M454.37,385.54H266.44a10.16,10.16,0,0,1-10.16-10.16h0a10.16,10.16,0,0,1,10.16-10.17H454.37a10.16,10.16,0,0,1,10.16,10.17h0A10.16,10.16,0,0,1,454.37,385.54Z"/><path class="cls-3" d="M558.49,345.73H295.89a10.16,10.16,0,0,1-10.16-10.16h0a10.16,10.16,0,0,1,10.16-10.16h262.6a10.16,10.16,0,0,1,10.16,10.16h0A10.16,10.16,0,0,1,558.49,345.73Z"/><path class="cls-3" d="M1681.67,1073H1600a10.16,10.16,0,0,1-10.16-10.16h0a10.16,10.16,0,0,1,10.16-10.16h81.7a10.16,10.16,0,0,1,10.16,10.16h0A10.16,10.16,0,0,1,1681.67,1073Z"/><path class="cls-3" d="M1991.94,1073H1729.33a10.16,10.16,0,0,1-10.16-10.16h0a10.16,10.16,0,0,1,10.16-10.16h262.61a10.16,10.16,0,0,1,10.16,10.16h0A10.16,10.16,0,0,1,1991.94,1073Z"/><path class="cls-3" d="M2023.49,1112.8h-262.6a10.16,10.16,0,0,1-10.16-10.16h0a10.16,10.16,0,0,1,10.16-10.17h262.6a10.16,10.16,0,0,1,10.16,10.17h0A10.16,10.16,0,0,1,2023.49,1112.8Z"/><path class="cls-3" d="M1948.81,1192.4H1760.89a10.16,10.16,0,0,1-10.16-10.16h0a10.16,10.16,0,0,1,10.16-10.16h187.92a10.16,10.16,0,0,1,10.16,10.16h0A10.16,10.16,0,0,1,1948.81,1192.4Z"/><path class="cls-3" d="M2052.94,1152.6h-262.6a10.16,10.16,0,0,1-10.16-10.16h0a10.16,10.16,0,0,1,10.16-10.16h262.6a10.16,10.16,0,0,1,10.16,10.16h0A10.16,10.16,0,0,1,2052.94,1152.6Z"/><path class="cls-4" d="M1433.43,279.89V318.4a8.56,8.56,0,0,0,8.17,8.55l48.15,2.27a8.57,8.57,0,0,0,9-8.56V279.89a8.57,8.57,0,0,0-8.56-8.57H1442A8.57,8.57,0,0,0,1433.43,279.89Z"/><path class="cls-5" d="M1760.22,611v30.59a6.81,6.81,0,0,0,6.49,6.8l38.26,1.8a6.81,6.81,0,0,0,7.13-6.8V611a6.81,6.81,0,0,0-6.81-6.81H1767A6.81,6.81,0,0,0,1760.22,611Z"/><path class="cls-6" d="M1907.31,175.5v27.14a6,6,0,0,0,5.76,6l33.93,1.59a6,6,0,0,0,6.32-6V175.5a6,6,0,0,0-6-6h-33.93A6,6,0,0,0,1907.31,175.5Z"/><path class="cls-7" d="M1834.91,829.61v17.61a3.92,3.92,0,0,0,3.73,3.92l22,1a3.92,3.92,0,0,0,4.11-3.91V829.61a3.93,3.93,0,0,0-3.92-3.92h-22A3.92,3.92,0,0,0,1834.91,829.61Z"/><path class="cls-8" d="M1895.68,614.91l-1.93,119.47a13.54,13.54,0,0,0,13.54,13.76h137.55a13.54,13.54,0,0,0,13.54-13.54V615.13a13.55,13.55,0,0,0-13.54-13.55H1909.22A13.54,13.54,0,0,0,1895.68,614.91Z"/><g class="cls-9"><path class="cls-10" d="M1976.59,729.71c-1,0-2,0-3-.07-34-1.5-60.43-28.52-59.05-60.24a55.38,55.38,0,0,1,19.92-40,63.55,63.55,0,0,1,44.16-14.84c33.94,1.5,60.43,28.52,59,60.24h0a55.34,55.34,0,0,1-19.92,40A63.22,63.22,0,0,1,1976.59,729.71Zm-.9-107.09a55.15,55.15,0,0,0-35.92,13,47.28,47.28,0,0,0-17.07,34.16c-1.2,27.25,21.81,50.48,51.28,51.78a55.42,55.42,0,0,0,38.54-12.91,47.31,47.31,0,0,0,17.07-34.16c1.19-27.25-21.82-50.48-51.29-51.78Q1977,622.62,1975.69,622.62Z"/><path class="cls-10" d="M1990.85,672.36a162.56,162.56,0,0,1-2.32,28.21c-.42,2.33-.91,4.64-1.49,6.93a67.24,67.24,0,0,1-2.07,6.79,32.73,32.73,0,0,1-3.09,6.39,12.86,12.86,0,0,1-2.33,2.72,6.38,6.38,0,0,1-1.52,1,4.51,4.51,0,0,1-1.77.42,4.43,4.43,0,0,1-1.8-.33,6.26,6.26,0,0,1-1.55-.93,12.14,12.14,0,0,1-2.38-2.68,31.13,31.13,0,0,1-3.13-6.37,63.86,63.86,0,0,1-2.1-6.77c-.59-2.29-1.08-4.61-1.5-6.93-.85-4.65-1.42-9.34-1.81-14s-.58-9.43-.6-14.15c0-2.37,0-4.73.13-7.09s.22-4.71.39-7.07c.35-4.71.87-9.41,1.64-14.07.39-2.33.84-4.65,1.39-7a68.52,68.52,0,0,1,2-6.81c.4-1.11.83-2.21,1.32-3.29a23.51,23.51,0,0,1,1.69-3.12,11.73,11.73,0,0,1,2.32-2.7,6,6,0,0,1,1.54-.92,4.22,4.22,0,0,1,1.76-.31,4.35,4.35,0,0,1,1.74.41,6.47,6.47,0,0,1,1.52,1,13,13,0,0,1,2.37,2.64,31.84,31.84,0,0,1,3.25,6.3,63.89,63.89,0,0,1,2.23,6.73c.63,2.27,1.16,4.58,1.62,6.89A148.87,148.87,0,0,1,1990.85,672.36Zm-.7,0c0-4.7-.17-9.41-.56-14.09a134.16,134.16,0,0,0-1.83-14c-.43-2.31-.94-4.61-1.54-6.88a63,63,0,0,0-2.14-6.71,31.73,31.73,0,0,0-3.15-6.27,13,13,0,0,0-2.29-2.62,6.57,6.57,0,0,0-1.46-.93,4.32,4.32,0,0,0-1.66-.41,4,4,0,0,0-1.67.32,5.87,5.87,0,0,0-1.47.9,11.19,11.19,0,0,0-2.23,2.66,24.15,24.15,0,0,0-1.64,3.1c-.47,1.07-.89,2.17-1.27,3.28a67,67,0,0,0-1.88,6.79q-.77,3.45-1.3,6.93c-.72,4.65-1.19,9.34-1.48,14s-.4,9.4-.39,14.1.14,9.41.49,14.11.89,9.36,1.69,14c.41,2.31.88,4.62,1.44,6.9a65.36,65.36,0,0,0,2,6.74,31,31,0,0,0,3,6.3,11.79,11.79,0,0,0,2.27,2.6,5.77,5.77,0,0,0,1.46.89,3.92,3.92,0,0,0,3.26-.09,6.1,6.1,0,0,0,1.43-.94,12.07,12.07,0,0,0,2.22-2.65,31.56,31.56,0,0,0,3-6.32,66.13,66.13,0,0,0,2-6.75c.56-2.28,1-4.58,1.43-6.9.8-4.63,1.33-9.31,1.68-14S1990.15,677.07,1990.15,672.36Z"/><path class="cls-10" d="M1976.12,726.18a6,6,0,0,1-2.17-.43,7.51,7.51,0,0,1-1.89-1.13,13.13,13.13,0,0,1-2.66-3,32.5,32.5,0,0,1-3.29-6.66,68.11,68.11,0,0,1-2.14-6.92c-.56-2.21-1.06-4.51-1.52-7-.81-4.46-1.41-9.1-1.83-14.19-.37-4.62-.58-9.42-.6-14.26,0-2.53.06-5,.13-7.14.09-2.39.23-4.79.4-7.12.38-5.12.92-9.76,1.65-14.19.42-2.53.88-4.83,1.4-7a69.07,69.07,0,0,1,2-6.94c.45-1.27.89-2.38,1.37-3.41a24,24,0,0,1,1.78-3.3,12.6,12.6,0,0,1,2.61-3,7,7,0,0,1,1.89-1.14,5.64,5.64,0,0,1,2.32-.41,6,6,0,0,1,2.25.53,8,8,0,0,1,1.82,1.13,14.16,14.16,0,0,1,2.63,2.93,33.25,33.25,0,0,1,3.4,6.57,65.26,65.26,0,0,1,2.28,6.88c.61,2.21,1.15,4.5,1.64,7a148.55,148.55,0,0,1,2.62,28.44h0a162.62,162.62,0,0,1-2.34,28.45c-.45,2.52-1,4.82-1.51,7a69.42,69.42,0,0,1-2.11,6.93,33.11,33.11,0,0,1-3.24,6.66,13.73,13.73,0,0,1-2.58,3,8.21,8.21,0,0,1-1.84,1.19,6.12,6.12,0,0,1-2.32.54Zm-.71-104.34a2.76,2.76,0,0,0-1,.21,4.37,4.37,0,0,0-1.11.69,10,10,0,0,0-2,2.34,21.94,21.94,0,0,0-1.53,2.92c-.43,1-.83,2-1.23,3.17a64.32,64.32,0,0,0-1.84,6.65c-.48,2.15-.9,4.38-1.28,6.84-.68,4.35-1.16,8.9-1.47,13.9-.28,4.28-.4,8.87-.39,14,0,4.76.15,9.47.49,14,.37,5,.92,9.52,1.67,13.87.43,2.44.89,4.66,1.42,6.81a64,64,0,0,0,2,6.59,28.93,28.93,0,0,0,2.91,6,10.2,10.2,0,0,0,2,2.3,4.22,4.22,0,0,0,1.1.67,2.89,2.89,0,0,0,1.08.22,2.67,2.67,0,0,0,1.1-.28,4.8,4.8,0,0,0,1.11-.73,10.89,10.89,0,0,0,2-2.36,30,30,0,0,0,2.86-6,62.91,62.91,0,0,0,2-6.61c.52-2.13,1-4.36,1.41-6.81.74-4.31,1.29-8.85,1.66-13.87.35-4.52.52-9.23.52-14h0c0-4.74-.18-9.45-.55-14a134.74,134.74,0,0,0-1.82-13.85c-.45-2.41-.94-4.63-1.51-6.78a61.32,61.32,0,0,0-2.1-6.56,30.1,30.1,0,0,0-3-6,11.57,11.57,0,0,0-2-2.33,5.13,5.13,0,0,0-1.14-.74,3,3,0,0,0-1.13-.28Z"/><path class="cls-10" d="M2014.57,672.36a69,69,0,0,1-2.43,18,58.28,58.28,0,0,1-7.51,16.53,47.4,47.4,0,0,1-5.74,7.05,40.31,40.31,0,0,1-7.06,5.71,33.59,33.59,0,0,1-8.24,3.78,30.77,30.77,0,0,1-17.93,0,33.93,33.93,0,0,1-8.24-3.77,40.53,40.53,0,0,1-7.08-5.71,47.4,47.4,0,0,1-5.74-7,58,58,0,0,1-7.54-16.54,66.36,66.36,0,0,1-1.82-8.93,68.26,68.26,0,0,1,0-18.21,68,68,0,0,1,1.83-8.93,58.39,58.39,0,0,1,7.55-16.53,47.38,47.38,0,0,1,5.75-7,40.41,40.41,0,0,1,7.07-5.7,34.67,34.67,0,0,1,8.24-3.76,30.42,30.42,0,0,1,17.89,0,34.32,34.32,0,0,1,8.24,3.77,40.25,40.25,0,0,1,7.06,5.7,48,48,0,0,1,5.74,7,58.53,58.53,0,0,1,7.52,16.52A69,69,0,0,1,2014.57,672.36Zm-.8,0a68,68,0,0,0-2.33-17.83,58,58,0,0,0-7.27-16.41,47.62,47.62,0,0,0-5.61-7,39.58,39.58,0,0,0-6.94-5.71,33.46,33.46,0,0,0-8.14-3.77,30.53,30.53,0,0,0-8.85-1.35,31,31,0,0,0-8.86,1.35,33.46,33.46,0,0,0-8.13,3.79,39.15,39.15,0,0,0-6.93,5.71,46.85,46.85,0,0,0-5.59,7,57.71,57.71,0,0,0-7.26,16.41,64.41,64.41,0,0,0-1.74,8.83,68.71,68.71,0,0,0,0,18,66.61,66.61,0,0,0,1.75,8.83,58,58,0,0,0,7.27,16.4,46.75,46.75,0,0,0,5.6,7,39.08,39.08,0,0,0,6.92,5.71,33.88,33.88,0,0,0,8.12,3.77,31.19,31.19,0,0,0,8.85,1.36,30.82,30.82,0,0,0,8.84-1.36,33.54,33.54,0,0,0,8.13-3.76,39.08,39.08,0,0,0,6.94-5.7,46.75,46.75,0,0,0,5.6-7,57.79,57.79,0,0,0,7.29-16.41A68.35,68.35,0,0,0,2013.77,672.36Z"/><path class="cls-10" d="M1974.63,726.18a32.5,32.5,0,0,1-9.36-1.39,35.24,35.24,0,0,1-8.58-3.93,41.35,41.35,0,0,1-7.32-5.9,48.61,48.61,0,0,1-5.91-7.25,59.55,59.55,0,0,1-7.72-16.93,68.06,68.06,0,0,1-1.86-9.13,74.8,74.8,0,0,1-.63-9.28,72.82,72.82,0,0,1,.64-9.29,67,67,0,0,1,1.86-9.12,59.72,59.72,0,0,1,7.73-16.93,48.46,48.46,0,0,1,5.92-7.24,41.14,41.14,0,0,1,7.31-5.89,35.65,35.65,0,0,1,8.58-3.92,32,32,0,0,1,18.68,0,35.69,35.69,0,0,1,8.56,3.92,42.05,42.05,0,0,1,7.31,5.89,49,49,0,0,1,5.9,7.25,59.47,59.47,0,0,1,7.71,16.92,70.37,70.37,0,0,1,2.49,18.39h0a70.43,70.43,0,0,1-2.48,18.39,59.49,59.49,0,0,1-7.69,16.93,48.61,48.61,0,0,1-5.91,7.25,41.66,41.66,0,0,1-7.3,5.91,35.62,35.62,0,0,1-8.58,3.93A32.39,32.39,0,0,1,1974.63,726.18Zm0-104.55a29.07,29.07,0,0,0-8.45,1.29,32.36,32.36,0,0,0-7.8,3.63,38.36,38.36,0,0,0-6.68,5.51,46.17,46.17,0,0,0-5.43,6.83,56.61,56.61,0,0,0-7.08,16,65.23,65.23,0,0,0-1.7,8.65,69.22,69.22,0,0,0-.58,8.81,71.07,71.07,0,0,0,.58,8.8,63.81,63.81,0,0,0,1.72,8.64,56.14,56.14,0,0,0,7.08,16,46.13,46.13,0,0,0,5.44,6.82,37.64,37.64,0,0,0,6.68,5.51,32.21,32.21,0,0,0,7.78,3.61,29,29,0,0,0,8.45,1.3,29.34,29.34,0,0,0,8.44-1.29,32.34,32.34,0,0,0,7.8-3.61,38.72,38.72,0,0,0,6.69-5.5,46.13,46.13,0,0,0,5.44-6.82,56.41,56.41,0,0,0,7.11-16,67.85,67.85,0,0,0,0-34.92,56.3,56.3,0,0,0-7.1-16,46.22,46.22,0,0,0-5.44-6.83,38.64,38.64,0,0,0-6.7-5.51,32.29,32.29,0,0,0-7.79-3.62A29.53,29.53,0,0,0,1974.62,621.63Z"/><path class="cls-10" d="M1928,651.61l12-.09,12-.06,24,0,24,0,12,.06,12,.11a0,0,0,0,1,0,0s0,0,0,0l-12,.11-12,.06-24,0-24,0-12,0-12-.1a.07.07,0,0,1,0,0C1928,651.64,1928,651.61,1928,651.61Z"/><polygon class="cls-10" points="1976 653.29 1940 653.19 1927.43 653.09 1926.59 652.25 1926.59 651.63 1926.62 650.29 1928 650.24 1952 650.08 1975.99 650.04 2011.99 650.15 2025.35 650.27 2025.39 653.04 2023.98 653.08 2000 653.24 1976 653.29"/><path class="cls-10" d="M1941.93,631.44l8.52-.1,8.51-.05,8.52,0H1976l17,0,8.52.06c2.84,0,5.68.06,8.52.11a0,0,0,0,1,0,0s0,0,0,0c-2.84.05-5.68.07-8.52.11l-8.52.06-17,0h-8.52l-8.52,0-8.51-.06c-2.84,0-5.68,0-8.52-.09a.06.06,0,0,1,0-.06A.05.05,0,0,1,1941.93,631.44Z"/><path class="cls-10" d="M1976,633.12l-10.73,0-6.32,0L1947.6,633l-5.69-.07-1.35,0,0-2.78,1.4,0,5.5-.07,11.55-.09,6,0,11,0,28.66.14,5.43.07,1.4,0-.07,2.76-1.35,0-5.67.07-11.36.09Z"/><path class="cls-10" d="M1923.84,671.78l13-.09,13-.06,26.08,0,26.07,0,13,.06,13,.1a0,0,0,0,1,0,0s0,0,0,0l-13,.11-13,.06-26.07.05-26.08-.05-13,0-13-.1a.05.05,0,0,1,0,0A.06.06,0,0,1,1923.84,671.78Z"/><polygon class="cls-10" points="1976 673.46 1936.88 673.36 1922.47 673.25 1922.42 670.46 1923.83 670.41 1949.91 670.25 1976 670.21 2015.12 670.32 2028.74 670.43 2029.57 671.27 2029.51 673.21 2028.15 673.25 2002.08 673.41 1976 673.46"/><path class="cls-10" d="M1928,692l12-.09,12-.06,24,0,24,0,12,.06,12,.1,0,0s0,0,0,0l-12,.11-12,.06-24,0-24,0-12-.05-12-.1a0,0,0,0,1,0,0A.06.06,0,0,1,1928,692Z"/><polygon class="cls-10" points="1976 693.63 1940 693.53 1927.43 693.43 1926.59 692.59 1926.59 691.98 1926.62 690.63 1928 690.58 1952 690.43 1975.99 690.38 2011.99 690.49 2025.35 690.61 2025.39 693.38 2023.98 693.42 2000 693.58 1976 693.63"/><path class="cls-10" d="M2011.78,712.36h-68.13a.18.18,0,0,1-.19-.18.19.19,0,0,1,.19-.19h68.13a.2.2,0,0,1,.19.19A.19.19,0,0,1,2011.78,712.36Z"/><path class="cls-10" d="M2011.78,713.74h-68.13a1.56,1.56,0,1,1,0-3.12h68.13a1.56,1.56,0,0,1,0,3.12Z"/></g><path class="cls-11" d="M1664.79,411.88l-82.58,8.7a17.3,17.3,0,0,1-19.11-17.2V308.06a17.3,17.3,0,0,1,14.83-17.12l82.58-11.89a17.3,17.3,0,0,1,19.76,17.12v98.51A17.3,17.3,0,0,1,1664.79,411.88Z"/><path class="cls-12" d="M1598,394.15a12.25,12.25,0,1,1,12.24-12.24A12.26,12.26,0,0,1,1598,394.15Zm0-19.63a7.39,7.39,0,1,0,7.38,7.39A7.4,7.4,0,0,0,1598,374.52Z"/><path class="cls-13" d="M1598,355.79a26.15,26.15,0,0,1,26.12,26.12,25.64,25.64,0,0,1-.14,2.64,1.77,1.77,0,0,0,2,2l3.8-.56a1.79,1.79,0,0,0,1.51-1.65c.06-.79.1-1.59.1-2.4A33.45,33.45,0,0,0,1598,348.5a32.9,32.9,0,0,0-4.12.26,1.79,1.79,0,0,0-1.55,2.07l.63,3.69a1.76,1.76,0,0,0,2,1.46A26.12,26.12,0,0,1,1598,355.79Z"/><path class="cls-14" d="M1598,337a45,45,0,0,1,45,45v0a1.76,1.76,0,0,0,2,1.76l3.73-.55,1.54-1.79a52.17,52.17,0,0,0-59.59-51.15,1.76,1.76,0,0,0-1.47,2.05l.63,3.69a1.76,1.76,0,0,0,2,1.46A44.14,44.14,0,0,1,1598,337Z"/><path class="cls-15" d="M1598,318.13a63.84,63.84,0,0,1,63.7,61.05,1.79,1.79,0,0,0,2,1.71l3.7-.55a1.79,1.79,0,0,0,1.52-1.84,71.13,71.13,0,0,0-71-67.66,70.22,70.22,0,0,0-10.52.8,1.78,1.78,0,0,0-1.47,2.06l.63,3.68a1.77,1.77,0,0,0,2,1.45A62.38,62.38,0,0,1,1598,318.13Z"/><path class="cls-16" d="M157.9,835.73s163.38,430.87,215,520.5c59.92,104,234.9,37.74,226.2-49.33s-213.15-447-213.15-447Z"/><polygon class="cls-17" points="378.65 521.86 1223.7 169.79 1213.04 1122.54 350.9 892.16 378.65 521.86"/><ellipse class="cls-18" cx="1224.66" cy="648.93" rx="99.76" ry="489.62"/><path class="cls-19" d="M1232.23,1105.07c-9-9.17-28.66-44.55-45.5-136-16.27-88.4-25.24-203.07-25.24-322.87s9-234.48,25.24-322.88c16.84-91.48,36.49-126.86,45.5-136,9,9.17,28.66,44.55,45.5,136C1294,411.69,1303,526.36,1303,646.17s-9,234.47-25.24,322.87C1260.89,1060.52,1241.25,1095.9,1232.23,1105.07Z"/><g class="cls-20"><path class="cls-21" d="M1360.1,642.52c0,83.19-44.82,150.63-133.52,150.63S1066,725.71,1066,642.52s71.9-150.63,160.6-150.63S1360.1,559.33,1360.1,642.52Z"/></g><path class="cls-22" d="M214.88,501.38c47.77-5.55,116.26-7.55,190.33,9.42-24.41,127.46-20.72,260.31,7.5,397.87H203.82a67.69,67.69,0,0,1-66.9-57.08c-10.41-66-23.14-176.77-9.57-265.79A100.17,100.17,0,0,1,214.88,501.38Z"/><path class="cls-3" d="M340.24,598.18H177.49a14,14,0,0,1-11.77-21.65,3.37,3.37,0,1,1,5.66,3.67,7.28,7.28,0,0,0,6.11,11.24H340.24a7.3,7.3,0,0,0,7.29-7.28V572.58a7.3,7.3,0,0,0-7.29-7.29h-164a3.37,3.37,0,0,1,0-6.74h164a14,14,0,0,1,14,14v11.58A14,14,0,0,1,340.24,598.18Z"/><path class="cls-3" d="M325.73,670.26H163a14,14,0,0,1-11.78-21.65,3.37,3.37,0,1,1,5.66,3.67A7.28,7.28,0,0,0,163,663.52H325.73a7.3,7.3,0,0,0,7.29-7.29V644.65a7.3,7.3,0,0,0-7.29-7.28h-164a3.37,3.37,0,1,1,0-6.74h164a14,14,0,0,1,14,14v11.58A14,14,0,0,1,325.73,670.26Z"/><path class="cls-3" d="M526.2,495.26a3.37,3.37,0,0,1-1.27-6.49L1123.62,244a3.37,3.37,0,1,1,2.55,6.24L527.48,495A3.39,3.39,0,0,1,526.2,495.26Z"/><path class="cls-3" d="M422.2,537.77a3.37,3.37,0,0,1-1.28-6.49L460.5,515.1a3.37,3.37,0,0,1,2.56,6.24l-39.59,16.18A3.3,3.3,0,0,1,422.2,537.77Z"/><path class="cls-3" d="M340.24,754.68H177.49A14,14,0,0,1,165.72,733a3.37,3.37,0,1,1,5.66,3.66,7.29,7.29,0,0,0,6.11,11.25H340.24a7.3,7.3,0,0,0,7.29-7.29V729.07a7.3,7.3,0,0,0-7.29-7.29h-164a3.37,3.37,0,0,1,0-6.74h164a14,14,0,0,1,14,14v11.58A14,14,0,0,1,340.24,754.68Z"/><path class="cls-3" d="M355.48,848.38H192.73A14,14,0,0,1,181,826.73a3.37,3.37,0,1,1,5.66,3.66,7.29,7.29,0,0,0,6.12,11.25H355.48a7.3,7.3,0,0,0,7.29-7.29V822.77a7.3,7.3,0,0,0-7.29-7.29h-164a3.37,3.37,0,0,1,0-6.74h164a14,14,0,0,1,14,14v11.58A14,14,0,0,1,355.48,848.38Z"/><path class="cls-3" d="M500.84,1357.81a105.85,105.85,0,0,1-22.47-2.43A104,104,0,0,1,405,1296L275,1007.1a3.37,3.37,0,0,1,6.14-2.76l130,288.87a97.26,97.26,0,0,0,68.63,55.58,95.31,95.31,0,0,0,83.85-21.44q1.85-1.62,3.71-3.32a3.37,3.37,0,1,1,4.55,5c-1.28,1.17-2.55,2.3-3.82,3.41A101.57,101.57,0,0,1,500.84,1357.81Z"/><path class="cls-10" d="M258.86,966.38a3.37,3.37,0,0,1-3.08-2l-14.51-32.22a3.37,3.37,0,0,1,6.15-2.77l14.51,32.23a3.37,3.37,0,0,1-1.69,4.45A3.24,3.24,0,0,1,258.86,966.38Z"/><path class="cls-23" d="M1336.32,637.37a3.36,3.36,0,0,1-3.35-3.14c-2.91-41-17.15-71.59-42.31-90.91-43.47-33.37-105.46-21.91-106.08-21.79a3.37,3.37,0,0,1-1.27-6.62c2.65-.51,65.6-12.14,111.45,23.06,26.76,20.55,41.88,52.78,44.93,95.79a3.37,3.37,0,0,1-3.12,3.6Z"/><path class="cls-24" d="M1000.07,1390.39s63.88-80.28,53.5-156.16-62.23-66.83-85.3-22-43.8,38.71-30.1-3.47,30.89-69.65,2.49-111.65-31.35-59.84-15.39-97.31,36-90.57-27.5-109.52S771,929.59,785.84,1005.77s23.7,84.47,3.3,112.69-11.89,39.81-9,58.18-28.27,22.67-27.61-3.2,40.3-86.94,13.25-115.42-80.07-28.8-93.65,37.07,29.93,95.47,27.76,119.29-25.53-12.3-45.88,12,7,43.36,27.21,56.52,50.57,36.74,21.64,53.87-56.32.74-38.6,53.63Z"/><path class="cls-25" d="M868.74,945.26a33,33,0,0,0-5.7,4,44,44,0,0,0-4.94,4.91,55.17,55.17,0,0,0-7.79,11.62A73,73,0,0,0,843,992.83c-.13,1.17-.17,2.35-.23,3.52s-.12,2.34-.09,3.51l0,3.52.17,3.51.1,1.75.17,1.74.35,3.49c.35,2.3.59,4.63,1,6.92s.83,4.58,1.39,6.83l.78,3.4.81,3.29,3.26,13.11c4.32,17.48,8.48,35,11.75,52.52s5.39,35.3,4.89,52.83a122.74,122.74,0,0,1-1,13,96.54,96.54,0,0,1-2.39,12.73,83.3,83.3,0,0,1-4.13,12.13,91.52,91.52,0,0,0-4.54,13.53,216.12,216.12,0,0,0-4.45,27.28c-1,9.08-1.7,18.12-2.29,27.15-1.24,18-2.3,36-4.9,53.75-.33,2.21-.68,4.43-1.1,6.62s-.84,4.39-1.29,6.58-1,4.34-1.53,6.52c-.28,1.08-.6,2.14-.9,3.22s-.6,2.15-1,3.2l-1.07,3.16c-.36,1.06-.81,2.07-1.21,3.11-.78,2.09-1.8,4.06-2.73,6.09a55.46,55.46,0,0,1-7.47,11l.72.72a56.81,56.81,0,0,0,8.54-10.74,83.1,83.1,0,0,0,6-12.37,154.46,154.46,0,0,0,7.48-26.35c3.67-17.88,5.41-36,7.39-53.93,1-9,1.9-17.93,3.13-26.79a210.41,210.41,0,0,1,5-26,88.08,88.08,0,0,1,4.3-12.07,91.8,91.8,0,0,0,4.84-13.41,106.92,106.92,0,0,0,2.86-13.84,134.39,134.39,0,0,0,1.3-14c.77-18.63-1.54-37-4.65-55s-7.47-35.7-12.28-53.18c-1.21-4.37-2.43-8.74-3.69-13.08l-1-3.26-.87-3.18c-.61-2.11-1.08-4.24-1.58-6.38s-.88-4.28-1.33-6.42l-.5-3.24c-.17-1.08-.33-2.16-.44-3.24a101.46,101.46,0,0,1-.79-13,75.11,75.11,0,0,1,1.09-13,69.6,69.6,0,0,1,3.35-12.57,61.35,61.35,0,0,1,2.67-6,50.34,50.34,0,0,1,3.31-5.68,43.64,43.64,0,0,1,8.8-9.84Z"/><path class="cls-25" d="M1004.74,1217.17a428.7,428.7,0,0,1-7.93,42.18q-2.49,10.43-5.52,20.68c-.48,1.72-1,3.41-1.58,5.11s-1.08,3.39-1.65,5.08c-1.07,3.4-2.29,6.74-3.48,10.09s-2.52,6.66-3.92,9.92-2.77,6.54-4.2,9.8c-3,6.43-6.18,12.78-9.7,18.94a210.43,210.43,0,0,1-11.53,17.9,195.69,195.69,0,0,1-13.67,16.45l.68.76a123.91,123.91,0,0,0,15.59-15.15,164.48,164.48,0,0,0,12.9-17.57,200.19,200.19,0,0,0,10.43-19.14c1.5-3.31,3.05-6.6,4.41-10s2.64-6.76,3.91-10.15,2.4-6.84,3.47-10.31c.56-1.72,1.07-3.46,1.56-5.2s1-3.47,1.47-5.23c1.93-7,3.51-14,4.88-21.13a261.34,261.34,0,0,0,4.89-43Z"/><path class="cls-26" d="M264,1365.57s-2.25,12.74-3.35,25.36a8.69,8.69,0,0,0,8.32,9.42c16.8.7,52.74,2.06,65.64,1.49a2.83,2.83,0,0,0,2.49-3.88h0a6.32,6.32,0,0,0-3.24-3.41l-59.37-27.29Z"/><path class="cls-27" d="M262.13,1358.08l1.81,15.25s10.4,4.84,17.5-.61l-4.31-17Z"/><path class="cls-28" d="M263.49,1071.44c-.78,4-4.19,198.69,16.62,285.94a3,3,0,0,1-1.74,3.45,51.64,51.64,0,0,1-16.95,3.44,5.1,5.1,0,0,1-5.06-3.66c-6-20.24-34.46-121.67-38.17-218.57-4.16-108.27,0-3.68,0-3.68l2.43-66.93Z"/><path class="cls-29" d="M195.68,1372.22s-3.58,6.43-7.05,23.53a5.29,5.29,0,0,0,4.66,6.35c5.55.55,14.09,1.25,20.93,1.2a5.28,5.28,0,0,0,5.24-5.9c-.76-6.24-3.12-16.48-10.41-24.46Z"/><path class="cls-30" d="M192.53,1352.61l4.23,23.05s4.18,3.11,12.45.86l-2-24.81Z"/><path class="cls-31" d="M181.11,1077.42c-17,102.72,3.7,253.9,10.68,283.49a4.61,4.61,0,0,0,3.73,3.5,30.91,30.91,0,0,0,13.31-.53,4.24,4.24,0,0,0,3-3.9c.94-23.92-.75-170.77,15.11-228.81a13.21,13.21,0,0,1,5.09-7.27L262.85,1102l2.36-35.37Z"/><path class="cls-32" d="M289.58,882.76c-51-.84-107.3,13.4-107.3,13.4-15.21,88.72-2.66,191.06-2.66,191.06,39.49,10.35,84-6.33,84-6.33,6.57-37.09,37.19-141.46,37.19-141.46,24.93-3.09,45.46-10.28,62.37-19.79-12.9-14.95-19-34-21.62-45.21C323.56,880,305.31,883,289.58,882.76Z"/><path class="cls-33" d="M440.26,807.63a9.76,9.76,0,0,0-11.36-3.19c-7.5,31.71-46.86,57.42-87.3,70,2.64,11.24,8.72,30.26,21.62,45.21C430.33,881.91,440.26,807.63,440.26,807.63Z"/><path class="cls-34" d="M439,809.17c.52,1.66-5.55,4.2-9.12-2.62-.13-3.26-2.11-17.26-.16-19.92,10.4-14.18,30.56-32,30.56-32a4.8,4.8,0,0,1,.6,6.66l-9.78,10.19c2,3.7,4.54,6.82,5.71,11.29a13.75,13.75,0,0,1-1.37,10.09c-1.72,3.09-4.06,7.11-6.27,10.26A13.55,13.55,0,0,1,439,809.17Z"/><path class="cls-35" d="M446.86,778.14,438,785.7l-2.8,7.52,7.94,8.81s2.68-14.92,4.66-18.15S448.71,779.09,446.86,778.14Z"/><path class="cls-36" d="M201.85,945.55l-19.57-49.39s-47.65,32.37-55.48,73.42c9,.66,25.38,3,41.42,11.1C171.74,961.3,201.85,945.55,201.85,945.55Z"/><path class="cls-37" d="M243.48,992s-53.49,30.23-71.54,4.42a20.26,20.26,0,0,1-3.72-15.77c-16-8.09-32.42-10.44-41.42-11.1a56.62,56.62,0,0,0,6.15,38.84c31.62,57.84,117.61-3.2,117.61-3.2Z"/><path class="cls-3" d="M237.06,1030.28l29.19-102a3,3,0,0,1,2.52-2.14c5.29-.62,20.62-2.35,38.31-3.85,21.32-1.8,46.08-3.26,60.87-2a3,3,0,0,1,2.44,4.29c-8.41,17-43,86.25-60.34,108.93a3,3,0,0,1-2.41,1.18l-67.74-.63A3,3,0,0,1,237.06,1030.28Z"/><path class="cls-38" d="M310.11,913.49,331.28,910a1.51,1.51,0,0,1,1.69,2l-2.09,6.35a1.55,1.55,0,0,1-1.24,1L309.27,922a1.51,1.51,0,0,1-1.68-1.85l1.29-5.55A1.53,1.53,0,0,1,310.11,913.49Z"/><path class="cls-39" d="M294.26,931.41l1.75-9.08a2.08,2.08,0,0,1,1.85-1.69l42.75-4.34a2.09,2.09,0,0,1,2.25,2.58l-2.71,11.32a2.11,2.11,0,0,1-1.94,1.6l-41.78,2.11A2.11,2.11,0,0,1,294.26,931.41Z"/><path class="cls-40" d="M244.11,1005.65S240,988.92,241.68,983s4.82-13.56,15.42-11.87,23.09,6.16,23.09,6.16-.63,7.73-8.68,5.24l5,3.86s-.71,6.19-7.51,2.88l4.64,5.13s-2.92,5.08-7.92,1.82S258.3,1007.66,244.11,1005.65Z"/><path class="cls-41" d="M237.91,841.35l-16.23,46.94a1.69,1.69,0,0,0,.77,2c4.42,2.44,20.36,9.51,39.57-2.67a8,8,0,0,0,3.67-5.68l5.25-40.63Z"/><path class="cls-42" d="M273.22,797.88s17.83,33.55,15.54,47.11-24.37,12.58-43.66,1.57l-13.48-36.23Z"/><path class="cls-43" d="M246,828.77a1.38,1.38,0,0,0,.6-2c-1.42-2.18-4.1-6.63-5-10.52,0,0-3.21-2.06,8.15-4.77s28.3-6.94,31.86-16.61c3.47-9.43-5.65-33.14-20.2-14.25a1.38,1.38,0,0,1-2.19,0c-2.39-3.11-8.66-9.55-17.37-5.64-8.14,3.65-9.06,9.62-8.95,12.63a1.37,1.37,0,0,1-1.63,1.41c-4.12-.79-14-1.46-18.62,8.68-3.8,8.36-1.33,13.08.92,15.4a1.38,1.38,0,0,1-.59,2.29c-2.71.82-6.2,3.12-5.85,9.46.48,8.77,10.28,8,13.08,7.6a1.37,1.37,0,0,1,1.22.43c2.4,2.65,13.18,13.9,24.85,15.26a1.4,1.4,0,0,0,1.47-1.85L242.7,831.6a1.38,1.38,0,0,1,.75-1.72Z"/><path class="cls-44" d="M248,830.85s-12.69-8.7-13.62-1.37,11.43,10.62,17.55,7.89Z"/><path class="cls-7" d="M1640.62,534.73l-188.69-9.82a25.64,25.64,0,0,0-27.27,26.74l4.88,173.52c.4,14.18,12.67,25,27.23,24.3l179.17-8.85c12.14-.6,22.17-11.37,22.53-24.13l4.37-155.44C1663.23,547.21,1653.35,535.39,1640.62,534.73Z"/><path class="cls-45" d="M1540.59,707.64a71.07,71.07,0,1,1,71.07-71.07A71.15,71.15,0,0,1,1540.59,707.64Zm0-130.23a59.16,59.16,0,1,0,59.16,59.16A59.23,59.23,0,0,0,1540.59,577.41Z"/><path class="cls-46" d="M1518.32,663.94v-51.1a7,7,0,0,1,10.64-6.05l43,25.54a7,7,0,0,1,0,12.12L1529,670A7,7,0,0,1,1518.32,663.94Z"/><path class="cls-47" d="M1988.26,287.44l-172.13-9a23.39,23.39,0,0,0-24.88,24.4l4.45,158.29c.36,12.94,11.56,22.82,24.84,22.17L1984,475.26c11.08-.54,20.23-10.37,20.56-22l4-141.8C2008.89,298.83,1999.87,288,1988.26,287.44Z"/><g class="cls-48"><path class="cls-10" d="M1959.23,441.68H1838.57a16.85,16.85,0,0,1-16.83-16.83V336.93a16.85,16.85,0,0,1,16.83-16.84h120.66a16.85,16.85,0,0,1,16.83,16.84v87.92A16.85,16.85,0,0,1,1959.23,441.68Zm-120.66-109.9a5.15,5.15,0,0,0-5.14,5.15v87.92a5.14,5.14,0,0,0,5.14,5.14h120.66a5.15,5.15,0,0,0,5.14-5.14V336.93a5.15,5.15,0,0,0-5.14-5.15Z"/><path class="cls-10" d="M1898.93,384.23a5.82,5.82,0,0,1-3.38-1.07L1828,335.23a5.84,5.84,0,0,1,6.77-9.53l64.19,45.52,63.35-45a5.84,5.84,0,0,1,6.77,9.53l-66.73,47.4A5.86,5.86,0,0,1,1898.93,384.23Z"/><path class="cls-10" d="M1832.27,439l-1.72-11.56.81,5.79-4.91-3.18c1.28-2.06,25.64-44.66,41.69-72.78a5.85,5.85,0,0,1,10.16,5.79l-20.87,36.53c-5.23,9.13-10.46,18.27-14.39,25.12C1835.09,438.55,1835.09,438.55,1832.27,439Z"/><path class="cls-10" d="M1965.2,439c-2.83-.44-2.83-.44-10.78-14.29-3.93-6.85-9.16-16-14.38-25.12-10.45-18.27-20.87-36.53-20.87-36.53a5.84,5.84,0,1,1,10.15-5.79C1945.38,385.38,1969.73,428,1971,430l-4.9,3.18Z"/></g><path class="cls-49" d="M1956.52,805.49c-19.34,12.89-37.07,41.9-1.62,88.65,31.81,41.92,64.48,69.31,59.64,95.09s32.87,90.81,109.61,48.36c75.75-41.91,61.24-122.5-30.63-153.12C2039.74,866.54,2027.33,758.28,1956.52,805.49Z"/><path class="cls-50" d="M1895,966.65s30,35.94,60.23,6.75l11.68,27.08s-44.13,34.17-77.61-19.6Z"/><path class="cls-51" d="M1969.1,899.92c8.33-2.5,32.59-7.11,55.66,14.19a14.25,14.25,0,0,1,4.12,14.23c-6.2,22.82-22.55,90.22-8.21,119.39,0,0-25.26,27.85-52.83,5.4,0,0-12.36-53.9-28.56-77.56-11.18-16.33,17.83-61.34,25.17-72.21A8.59,8.59,0,0,1,1969.1,899.92Z"/><path class="cls-52" d="M1982,856.43s16.81,32.92,19.76,48a26.37,26.37,0,0,1-26.78-.73s-5.93-34.33-8.68-40.25Z"/><path class="cls-53" d="M1944.32,837.87s-3.13,55.34,20.15,56.12S1990,855.42,1990,855.42s-6.88-24.86-18-27.76S1944.32,837.87,1944.32,837.87Z"/><path class="cls-54" d="M1951.17,820.79s-10.64,10.88-8.81,17.65,24.64-.31,30.27-3.51L1991.48,855s-.58-29.72-13.58-38.87S1951.17,820.79,1951.17,820.79Z"/><path class="cls-55" d="M1983,856s2.84-19,12.12-13.64-.68,20-7.93,19.13Z"/><path class="cls-56" d="M1935.67,1166.3c.09,2.44-4.2,21.85-6.54,32.2a17,17,0,0,0,1.83,12.23l81,136.28a18.59,18.59,0,0,1,2.13,5.3c1.48,6.4,4.56,22.07,3,36.33l-4.19,8.7,18.12-4.11,3.94-48.65-5.13-3.13a24.33,24.33,0,0,1-9.85-11.54c-7.32-17.78-25.51-63.05-30.19-85.12-5.33-25.07-33.17-45.44-33.17-45.44l4.89-11.56Z"/><path class="cls-57" d="M2051.07,1376.49s-9.78-15.51-10.93-21.55-4.36-16.7-10.39-13.49c0,0-2.84,29.33-1.86,40.79s-13,11.09-13,11.09a13.06,13.06,0,0,0-6.66,3.35,3.27,3.27,0,0,0,2.19,5.49,78.64,78.64,0,0,0,19.41-1.1,6,6,0,0,0,4.79-5.48l2-33.75,12.33,15.58Z"/><path class="cls-58" d="M1984,1188s2.85,121.9,3.24,139.21-2.73,55.68-20.09,67.15l7.55,5.59s9.44-8,18.66-23.46c10.36-17.34,13.49-20.51,13.49-20.51l-3.44-7a15.51,15.51,0,0,1-1.25-9.92c3.74-18.15,16.26-78.53,19.67-91.53,4-15.35,4.32-35.85-9.7-53S1984,1188,1984,1188Z"/><path class="cls-59" d="M2000.06,1405.45a1.08,1.08,0,0,0,1.08-.92c.57-4.06,3-20.35,4.95-24.57,2.25-4.83,9.61-25.17,0-26.89,0,0-23.91,34.94-28.51,39.65s-10.38,1.64-10.38,1.64a17.31,17.31,0,0,0-7.85,5.63,3.17,3.17,0,0,0,2.5,5.09l16.11.16a11.34,11.34,0,0,0,10.62-7.14c2.84-7.09,7.71-17.47,13.39-22.08l-3,28.24a1.07,1.07,0,0,0,1,1.19Z"/><path class="cls-60" d="M1964,1040s3.63,11.57-2,30.63l-34.59,120.8a3.74,3.74,0,0,0,2.34,4.55c10.35,3.72,44.36,14.21,90.8,11a5.25,5.25,0,0,0,4.8-4.1c3.06-13.77,13.5-60.76,15.65-70.42,8.19-36.79,16.13-71.77-24.11-95.76C1998.43,1044.64,1982.35,1044.63,1964,1040Z"/><path class="cls-61" d="M2005.76,930.6s7,99.52-57.33,49.53c0,0-9.5-9-16.35-10.06-3.7-.59-7.86-1-10.92-1.22a1.38,1.38,0,0,0-.9,2.5c2.21,1.56,5.1,3.23,7.61,3.49,4.85.5-.32,4,5,13.34s12.83,5.79,12.83,5.79,73.67,75.44,88.38-56.14C2034.56,913.35,2011,914.66,2005.76,930.6Z"/><path class="cls-62" d="M1875.25,941.91l21.87-2.88c2.61-.43,5.3,1.09,6.91,3.92l14.39,31.8c2.71,4.76.78,11.06-3.6,11.79l-17.56,2.25a4.3,4.3,0,0,1-4.36-2.68l-19.46-38.84C1872.32,945,1873.26,942.24,1875.25,941.91Z"/><path class="cls-63" d="M1890.17,984.81s-14.7-21.4-13-24,14.6-6.41,17.63-7.3S1903.53,972,1890.17,984.81Z"/><path class="cls-24" d="M2114.29,1020.91a.81.81,0,0,1-.3-1.56,53.47,53.47,0,0,0,26.87-75.85c-10.46-18.64-30.51-29.06-49.9-39.14l-2.34-1.22c-21-10.91-41.39-23.92-48.89-45a.81.81,0,1,1,1.52-.54c7.31,20.53,27.45,33.32,48.12,44.08l2.33,1.22c19.6,10.19,39.87,20.72,50.57,39.79a55.08,55.08,0,0,1-27.69,78.13A.72.72,0,0,1,2114.29,1020.91Z"/><path class="cls-24" d="M2092.63,1013.48a.81.81,0,0,1-.19-1.59c16.3-4.12,29.92-14.32,36.43-27.28,7.33-14.61,5-32.81-5.53-43.28a.79.79,0,0,1,0-1.13.79.79,0,0,1,1.13,0c11,10.95,13.47,29.93,5.84,45.14-6.71,13.37-20.72,23.89-37.48,28.12A.69.69,0,0,1,2092.63,1013.48Z"/><path class="cls-64" d="M1780.91,819.33l-101.46-5.28a13.79,13.79,0,0,0-14.67,14.38l2.62,93.31a13.69,13.69,0,0,0,14.65,13.06l96.34-4.76c6.53-.32,11.93-6.11,12.12-13l2.35-83.58C1793.07,826,1787.75,819.69,1780.91,819.33Z"/><path class="cls-65" d="M1767.61,829.12h-71.73c-6.64,0-15.46,5.69-15.46,12.54v39.9c0,6.57,8.89,10.49,15.46,10.49h49.34c1.7,0,2.62,4.68,2.62,6.38v5.89c0,2.43,2.42,3.33,3.62,3.73a4.84,4.84,0,0,0,2.74,1,3.42,3.42,0,0,0,2.61-1.17l10.72-12.53c6.71-.15,9.53-7.22,9.53-13.79v-39.9C1777.06,835.14,1774.14,829.12,1767.61,829.12Zm2.71,52.44c0,3.08-.22,6-2.71,6h-2.68l-12.59,13.17v-8.67c0-1.7,1-4.5-.75-4.5h-55.71c-3.05,0-8.72-2.95-8.72-6V843.3c0-4.45,5.64-5.19,8.72-5.19h71.73c3,0,2.71.52,2.71,3.55Z"/><path class="cls-10" d="M1763.58,849.35a2.24,2.24,0,0,1-2.25,2.24h-65.18a2.24,2.24,0,0,1-2.25-2.24h0a2.25,2.25,0,0,1,2.25-2.25h65.18a2.25,2.25,0,0,1,2.25,2.25Z"/><path class="cls-10" d="M1763.58,860.58a2.25,2.25,0,0,1-2.25,2.25h-65.18a2.25,2.25,0,0,1-2.25-2.25h0a2.24,2.24,0,0,1,2.25-2.24h65.18a2.24,2.24,0,0,1,2.25,2.24Z"/><path class="cls-10" d="M1763.58,876.32a2.25,2.25,0,0,1-2.25,2.25h-65.18a2.25,2.25,0,0,1-2.25-2.25h0a2.25,2.25,0,0,1,2.25-2.25h65.18a2.25,2.25,0,0,1,2.25,2.25Z"/><path class="cls-3" d="M1641.69,265q3.16,1.29,6.3,2.65a4.49,4.49,0,1,1-3.57,8.25c-2-.88-4.08-1.74-6.13-2.58a4.49,4.49,0,1,1,3.4-8.32Z"/><path class="cls-3" d="M1577.58,752.13l6.63-1a4.49,4.49,0,0,1,3.82,7.67,4.4,4.4,0,0,1-2.43,1.21q-3.35.54-6.7,1a4.49,4.49,0,1,1-1.32-8.89Z"/><path class="cls-3" d="M1620.26,257.12l.84.28c1.89.62,3.78,1.25,5.65,1.9a4.51,4.51,0,0,1,2.77,5.73,4.56,4.56,0,0,1-1.11,1.74,4.48,4.48,0,0,1-4.61,1q-2.74-.94-5.49-1.85l-.81-.26a4.5,4.5,0,1,1,2.76-8.56Z"/><path class="cls-3" d="M1598.33,250.91c2.21.54,4.42,1.11,6.62,1.69a4.51,4.51,0,0,1,3.19,5.51,4.56,4.56,0,0,1-1.21,2.06,4.51,4.51,0,0,1-4.29,1.12c-2.15-.57-4.29-1.12-6.45-1.64a4.5,4.5,0,0,1,2.14-8.74Z"/><path class="cls-3" d="M1599.65,748.54q3.3-.59,6.59-1.2a4.5,4.5,0,0,1,4,7.65,4.44,4.44,0,0,1-2.31,1.2c-2.22.41-4.45.81-6.67,1.2a4.49,4.49,0,1,1-1.56-8.85Z"/><path class="cls-3" d="M1621.6,744.35l6.57-1.38a4.49,4.49,0,0,1,1.88,8.79c-2.21.47-4.43.94-6.64,1.39a4.49,4.49,0,1,1-1.81-8.8Z"/><path class="cls-3" d="M1676.38,286.73a4.5,4.5,0,0,1,6.15-1.61c2,1.16,3.92,2.33,5.86,3.52a4.5,4.5,0,0,1,1.48,6.18,4.67,4.67,0,0,1-.7.88,4.49,4.49,0,0,1-5.48.6c-1.89-1.16-3.8-2.3-5.71-3.42A4.49,4.49,0,0,1,1676.38,286.73Z"/><path class="cls-3" d="M1686.15,727.1c2.1-.73,4.19-1.47,6.28-2.24a4.5,4.5,0,0,1,4.68,7.45,4.76,4.76,0,0,1-1.58,1c-2.14.78-4.28,1.55-6.43,2.29a4.49,4.49,0,0,1-2.95-8.49Z"/><path class="cls-3" d="M1662.47,274.31c2,1,4.08,2,6.09,3.09a4.49,4.49,0,0,1,1.91,6.07,4.4,4.4,0,0,1-.85,1.15,4.52,4.52,0,0,1-5.21.76c-2-1-3.94-2-5.93-3a4.49,4.49,0,1,1,4-8.05Z"/><path class="cls-3" d="M1643.4,739.51c2.16-.53,4.33-1.06,6.5-1.61a4.49,4.49,0,0,1,4.23,7.58,4.4,4.4,0,0,1-2,1.13c-2.2.56-4.41,1.1-6.61,1.64a4.5,4.5,0,0,1-2.11-8.74Z"/><path class="cls-3" d="M1665,733.82q3.21-.93,6.4-1.9a4.5,4.5,0,0,1,2.63,8.6c-2.18.66-4.35,1.31-6.54,1.94a4.5,4.5,0,0,1-2.49-8.64Z"/><path class="cls-3" d="M1530.67,241.91q3.42.09,6.83.26a4.5,4.5,0,0,1-.43,9c-2.21-.11-4.43-.19-6.64-.25a4.5,4.5,0,0,1,.24-9Z"/><path class="cls-3" d="M1485.17,243.83c2.27-.25,4.53-.48,6.8-.69a4.49,4.49,0,0,1,3.54,7.7,4.39,4.39,0,0,1-2.72,1.25c-2.21.2-4.42.43-6.62.67a4.49,4.49,0,1,1-1-8.93Z"/><path class="cls-3" d="M1488.58,761.13l6.7-.41a4.49,4.49,0,0,1,.57,9c-2.25.15-4.5.28-6.75.41a4.49,4.49,0,1,1-.52-9Z"/><path class="cls-3" d="M1466.22,762.2l6.71-.28a4.49,4.49,0,0,1,4.69,4.29,4.57,4.57,0,0,1-1.36,3.43,4.5,4.5,0,0,1-2.94,1.26l-6.76.28a4.49,4.49,0,0,1-.34-9Z"/><path class="cls-3" d="M1507.89,242.09c2.28-.1,4.55-.17,6.83-.22a4.5,4.5,0,1,1,.19,9c-2.21,0-4.43.12-6.64.21a4.49,4.49,0,1,1-.38-9Z"/><path class="cls-3" d="M1462.64,247.12q3.36-.62,6.73-1.15a4.5,4.5,0,0,1,3.84,7.67,4.54,4.54,0,0,1-2.41,1.21q-3.29.53-6.56,1.12a4.5,4.5,0,1,1-1.6-8.85Z"/><path class="cls-3" d="M1443.84,762.86c2.24,0,4.47-.1,6.71-.16a4.5,4.5,0,0,1,.24,9l-6.76.16a4.5,4.5,0,1,1-.19-9Z"/><path class="cls-3" d="M1510.91,759.62l6.69-.54a4.49,4.49,0,1,1,.75,8.95c-2.25.19-4.5.38-6.75.55a4.49,4.49,0,1,1-.69-9Z"/><path class="cls-3" d="M1555.42,755.16l6.66-.85a4.49,4.49,0,1,1,1.16,8.91l-6.71.86a4.49,4.49,0,1,1-1.11-8.92Z"/><path class="cls-3" d="M1553.41,243.32c2.27.21,4.54.46,6.8.73a4.49,4.49,0,1,1-1,8.92c-2.2-.26-4.41-.49-6.61-.71a4.49,4.49,0,1,1,.86-8.94Z"/><path class="cls-3" d="M1533.19,757.64c2.23-.22,4.45-.45,6.68-.69a4.49,4.49,0,0,1,4.94,4,4.51,4.51,0,0,1-4,4.95l-6.73.7a4.5,4.5,0,0,1-.9-9Z"/><path class="cls-3" d="M1695.52,298.5a4.49,4.49,0,0,1,6.25-1.18c1.88,1.29,3.75,2.59,5.6,3.92a4.5,4.5,0,0,1,1.05,6.27,5.27,5.27,0,0,1-.53.61,4.49,4.49,0,0,1-5.74.43c-1.81-1.29-3.62-2.56-5.45-3.81A4.49,4.49,0,0,1,1695.52,298.5Z"/><path class="cls-3" d="M1576,246.31c2.25.38,4.5.78,6.73,1.21a4.49,4.49,0,0,1-1.68,8.83c-2.18-.41-4.36-.81-6.54-1.18a4.49,4.49,0,1,1,1.49-8.86Z"/><path class="cls-3" d="M1785,667a4.5,4.5,0,1,1,6.6,6.11c-1.56,1.69-3.16,3.35-4.78,5l-.06,0a4.49,4.49,0,0,1-6.31-6.39C1782,670.17,1783.52,668.6,1785,667Z"/><path class="cls-3" d="M1833.35,513.09a4.5,4.5,0,0,1-5.06-3.85q-.45-3.28-1-6.56a4.5,4.5,0,1,1,8.88-1.44c.36,2.26.7,4.53,1,6.79a4.48,4.48,0,0,1-1.33,3.83A4.4,4.4,0,0,1,1833.35,513.09Z"/><path class="cls-3" d="M1835,535.51a4.49,4.49,0,0,1-4.69-4.28c-.1-2.21-.24-4.41-.4-6.62a4.5,4.5,0,1,1,9-.65q.24,3.42.41,6.86a4.49,4.49,0,0,1-4.29,4.69Z"/><path class="cls-3" d="M1829.75,490.9a4.5,4.5,0,0,1-5.37-3.4q-.72-3.24-1.53-6.46a4.49,4.49,0,0,1,8.72-2.18c.56,2.22,1.08,4.44,1.58,6.67a4.49,4.49,0,0,1-3.4,5.37Z"/><path class="cls-3" d="M1834.53,558a4.49,4.49,0,0,1-4.26-4.71c.11-2.2.18-4.41.23-6.61a4.5,4.5,0,1,1,9,.18c0,2.29-.13,4.59-.24,6.88a4.49,4.49,0,0,1-4.72,4.26Z"/><path class="cls-3" d="M1831.82,580.31a4.5,4.5,0,0,1-3.76-5.12q.51-3.27.91-6.55a4.49,4.49,0,1,1,8.92,1.08c-.28,2.29-.59,4.56-.94,6.83a4.5,4.5,0,0,1-5.13,3.76Z"/><path class="cls-3" d="M1785.83,388.22a4.5,4.5,0,0,1-6.26-1.14q-1.89-2.73-3.84-5.42a4.5,4.5,0,0,1,7.29-5.28q2,2.78,4,5.59a4.51,4.51,0,0,1-.57,5.78A4.32,4.32,0,0,1,1785.83,388.22Z"/><path class="cls-3" d="M1797.68,407.32a4.51,4.51,0,0,1-6.16-1.58q-1.69-2.87-3.45-5.69a4.5,4.5,0,1,1,7.64-4.74c1.2,1.94,2.39,3.89,3.55,5.85a4.49,4.49,0,0,1-.74,5.51A4.94,4.94,0,0,1,1797.68,407.32Z"/><path class="cls-3" d="M1824.29,469.09a4.49,4.49,0,0,1-5.63-2.95c-.66-2.11-1.34-4.2-2.06-6.29a4.5,4.5,0,1,1,8.52-2.9q1.1,3.24,2.12,6.52a4.48,4.48,0,0,1-1.16,4.56A4.38,4.38,0,0,1,1824.29,469.09Z"/><path class="cls-3" d="M1706.87,719.18c2-.86,4.08-1.74,6.1-2.64a4.5,4.5,0,0,1,5,7.33,4.39,4.39,0,0,1-1.3.88c-2.08.93-4.17,1.83-6.27,2.72a4.5,4.5,0,0,1-3.49-8.29Z"/><path class="cls-3" d="M1808.13,427.22a4.51,4.51,0,0,1-6-2q-1.49-3-3-5.92a4.5,4.5,0,0,1,8-4.18q1.59,3,3.12,6.09a4.52,4.52,0,0,1-.89,5.23A5.12,5.12,0,0,1,1808.13,427.22Z"/><path class="cls-3" d="M1817.06,447.83a4.51,4.51,0,0,1-5.86-2.48q-.92-2.28-1.88-4.53l-.68-1.58a4.5,4.5,0,0,1,8.25-3.58l.69,1.62c.66,1.55,1.32,3.12,2,4.69a4.53,4.53,0,0,1-1,4.92A4.6,4.6,0,0,1,1817.06,447.83Z"/><path class="cls-3" d="M1823.53,596.67q.85-3.18,1.61-6.39a4.49,4.49,0,1,1,8.75,2.06c-.52,2.24-1.09,4.47-1.69,6.69a4.49,4.49,0,1,1-8.67-2.36Z"/><path class="cls-3" d="M1746.1,699c1.86-1.18,3.71-2.38,5.53-3.61a4.5,4.5,0,0,1,5.65,6.95,5,5,0,0,1-.62.5c-1.9,1.28-3.81,2.53-5.75,3.76a4.5,4.5,0,1,1-4.81-7.6Z"/><path class="cls-3" d="M1758.25,352.77a4.5,4.5,0,0,1-6.35-.26c-1.51-1.63-3-3.25-4.56-4.85a4.5,4.5,0,0,1,.11-6.34l0,0a4.5,4.5,0,0,1,6.36.13q2.37,2.47,4.68,5a4.49,4.49,0,0,1-.17,6.26Z"/><path class="cls-3" d="M1731.46,332.2a4.49,4.49,0,1,1,6-6.65q2.54,2.29,5,4.65a4.49,4.49,0,0,1,.18,6.35l-.14.14a4.5,4.5,0,0,1-6.22,0Q1733.92,334.43,1731.46,332.2Z"/><path class="cls-3" d="M1713.81,311.56a4.5,4.5,0,0,1,6.31-.74c1.79,1.41,3.57,2.84,5.32,4.29a4.49,4.49,0,0,1,.61,6.33c-.11.13-.22.25-.34.37a4.51,4.51,0,0,1-6,.24q-2.57-2.12-5.17-4.18A4.49,4.49,0,0,1,1713.81,311.56Z"/><path class="cls-3" d="M1726.93,709.86q3-1.51,5.86-3.1a4.49,4.49,0,0,1,5.28,7.17,4.24,4.24,0,0,1-1,.73q-3,1.64-6,3.2a4.5,4.5,0,0,1-4.11-8Z"/><path class="cls-3" d="M1807,637.08c1.08-1.9,2.12-3.81,3.12-5.75a4.5,4.5,0,0,1,8,4.14c-1.06,2-2.16,4.07-3.31,6.07a4.23,4.23,0,0,1-.77,1,4.5,4.5,0,0,1-7-5.46Z"/><path class="cls-3" d="M1816.52,617.43q1.24-3,2.37-6.13a4.49,4.49,0,1,1,8.44,3.08c-.79,2.17-1.62,4.31-2.49,6.45a4.49,4.49,0,0,1-8.32-3.4Z"/><path class="cls-3" d="M1769,358.41c1.46,1.74,2.9,3.51,4.32,5.29a4.5,4.5,0,0,1-.37,6c-.1.1-.21.19-.33.29a4.5,4.5,0,0,1-6.32-.71c-1.38-1.73-2.79-3.44-4.21-5.15a4.49,4.49,0,0,1,6.91-5.75Z"/><path class="cls-3" d="M1796.11,653.67c.91-1.22,1.8-2.44,2.67-3.68a4.5,4.5,0,0,1,7.35,5.18q-1.38,2-2.83,3.89l-1.27,1.68a4.32,4.32,0,0,1-.45.5,4.49,4.49,0,0,1-6.69-6Z"/><path class="cls-3" d="M1764.06,686.28q2.6-2,5.1-4.17a4.49,4.49,0,0,1,6,6.65,2.29,2.29,0,0,1-.23.21q-2.62,2.24-5.34,4.36a4.49,4.49,0,0,1-5.57-7.05Z"/><path class="cls-3" d="M1440.37,252q3.32-.82,6.65-1.61a4.49,4.49,0,1,1,2,8.76c-2.16.5-4.31,1-6.46,1.57a4.5,4.5,0,0,1-2.21-8.72Z"/><path class="cls-3" d="M837.42,751.32c2.24-.28,4.47-.55,6.71-.81a4.5,4.5,0,1,1,1,8.93l-6.65.8a4.49,4.49,0,1,1-1.11-8.92Z"/><path class="cls-3" d="M815,754.42c2.23-.34,4.47-.67,6.7-1a4.5,4.5,0,1,1,1.28,8.9l-6.63,1a4.5,4.5,0,1,1-1.35-8.89Z"/><path class="cls-3" d="M770.57,762.43l6.64-1.36a4.49,4.49,0,0,1,4,7.64,4.46,4.46,0,0,1-2.24,1.18c-2.19.44-4.38.88-6.56,1.34a4.5,4.5,0,1,1-1.85-8.8Z"/><path class="cls-3" d="M792.76,758.12l6.67-1.18a4.5,4.5,0,0,1,1.52,8.87c-2.2.37-4.4.76-6.6,1.15a4.49,4.49,0,1,1-1.59-8.84Z"/><path class="cls-3" d="M748.51,767.38l6.6-1.55a4.49,4.49,0,1,1,2,8.76c-2.17.5-4.35,1-6.52,1.54a4.5,4.5,0,0,1-2.1-8.75Z"/><path class="cls-3" d="M1421.44,763.16l6.72,0a4.5,4.5,0,0,1,3.18,7.72,4.56,4.56,0,0,1-3.09,1.27l-6.76,0a4.5,4.5,0,0,1,0-9Z"/><path class="cls-3" d="M726.6,773l6.56-1.75a4.5,4.5,0,0,1,4.27,7.58,4.61,4.61,0,0,1-2,1.12q-3.24.84-6.48,1.73A4.5,4.5,0,0,1,726.6,773Z"/><path class="cls-3" d="M927.37,744.15l6.76-.25a4.5,4.5,0,0,1,.3,9l-6.72.24a4.49,4.49,0,0,1-.34-9Z"/><path class="cls-3" d="M859.85,748.8c2.24-.23,4.49-.45,6.73-.66a4.49,4.49,0,0,1,.84,9l-6.67.65a4.49,4.49,0,1,1-.9-8.94Z"/><path class="cls-3" d="M949.91,743.47c2.25-.05,4.51-.1,6.76-.13a4.49,4.49,0,1,1,.15,9l-6.71.14a4.5,4.5,0,1,1-.2-9Z"/><path class="cls-3" d="M904.83,745.24l6.76-.37a4.5,4.5,0,0,1,.47,9c-2.24.11-4.47.24-6.71.37a4.5,4.5,0,0,1-.52-9Z"/><path class="cls-3" d="M882.32,746.78l6.75-.51a4.5,4.5,0,0,1,.65,9l-6.7.5a4.49,4.49,0,0,1-.7-9Z"/><path class="cls-3" d="M541.88,856.92c1.86-1.3,3.72-2.58,5.6-3.85a4.5,4.5,0,0,1,5.66,6.94,4.37,4.37,0,0,1-.62.5q-2.76,1.88-5.5,3.79a4.5,4.5,0,1,1-5.14-7.38Z"/><path class="cls-3" d="M972.45,743.16l6.77,0a4.5,4.5,0,0,1,0,9l-6.72,0a4.5,4.5,0,1,1-.06-9Z"/><path class="cls-3" d="M523.59,870.33c1.8-1.38,3.6-2.75,5.42-4.11a4.5,4.5,0,0,1,5.83,6.82,5.63,5.63,0,0,1-.45.38c-1.78,1.33-3.56,2.68-5.32,4a4.5,4.5,0,0,1-5.48-7.13Z"/><path class="cls-3" d="M489.05,899.7c1.66-1.55,3.32-3.09,5-4.62a4.49,4.49,0,0,1,6.16,6.54l-.1.1q-2.48,2.25-4.9,4.53a4.51,4.51,0,0,1-6.36-.19A4.46,4.46,0,0,1,489.05,899.7Z"/><path class="cls-3" d="M560.76,844.37q2.87-1.82,5.77-3.6a4.5,4.5,0,0,1,5.49,7.05,5.12,5.12,0,0,1-.78.61q-2.85,1.76-5.68,3.54a4.49,4.49,0,1,1-4.8-7.6Z"/><path class="cls-3" d="M506,884.59c1.73-1.47,3.47-2.92,5.21-4.37a4.5,4.5,0,0,1,6,6.69l-.28.25q-2.57,2.12-5.11,4.28a4.49,4.49,0,0,1-5.82-6.85Z"/><path class="cls-3" d="M620.37,811.74q3.07-1.46,6.17-2.86a4.49,4.49,0,1,1,3.74,8.17c-2,.93-4.06,1.87-6.08,2.82a4.49,4.49,0,0,1-3.83-8.13Z"/><path class="cls-3" d="M662.05,794c2.12-.81,4.24-1.6,6.36-2.39a4.5,4.5,0,1,1,3.13,8.43c-2.09.77-4.19,1.56-6.27,2.36a4.5,4.5,0,1,1-3.22-8.4Z"/><path class="cls-3" d="M641.05,802.48c2.08-.88,4.17-1.76,6.27-2.62a4.5,4.5,0,0,1,4.85,7.38,4.43,4.43,0,0,1-1.42.93q-3.11,1.27-6.18,2.59a4.5,4.5,0,0,1-3.52-8.28Z"/><path class="cls-3" d="M600.06,821.79q3-1.57,6.05-3.1a4.49,4.49,0,1,1,4,8q-3,1.51-5.95,3a4.49,4.49,0,1,1-4.15-8Z"/><path class="cls-3" d="M580.17,832.66c2-1.13,3.94-2.24,5.92-3.35a4.5,4.5,0,0,1,5.32,7.15,4.74,4.74,0,0,1-.94.71c-2,1.08-3.9,2.18-5.83,3.29a4.5,4.5,0,0,1-4.47-7.8Z"/><path class="cls-3" d="M683.34,786.28q3.21-1.11,6.44-2.17a4.49,4.49,0,0,1,4.54,7.49,4.58,4.58,0,0,1-1.71,1c-2.12.7-4.24,1.42-6.35,2.14a4.49,4.49,0,1,1-2.92-8.5Z"/><path class="cls-3" d="M704.87,779.28l6.5-2a4.5,4.5,0,0,1,4.4,7.54,4.4,4.4,0,0,1-1.85,1.08c-2.14.64-4.28,1.28-6.42,1.94a4.5,4.5,0,0,1-2.63-8.6Z"/><path class="cls-3" d="M1331.78,761.33l6.73.28a4.49,4.49,0,1,1-.35,9l-6.76-.27a4.5,4.5,0,0,1,.38-9Z"/><path class="cls-3" d="M1354.2,762.18l6.73.21a4.49,4.49,0,1,1-.27,9l-6.75-.21a4.49,4.49,0,1,1,.29-9Z"/><path class="cls-3" d="M1264.53,757.72l6.73.41a4.5,4.5,0,1,1-.55,9l-6.74-.42a4.49,4.49,0,0,1,.56-9Z"/><path class="cls-3" d="M1354.74,292.65a4.48,4.48,0,0,1,1.57-6.16q2.94-1.74,5.93-3.42a4.49,4.49,0,0,1,4.41,7.83q-2.89,1.64-5.76,3.33A4.49,4.49,0,0,1,1354.74,292.65Z"/><path class="cls-3" d="M1287,759.07l6.73.38a4.5,4.5,0,0,1-.5,9l-6.74-.38a4.5,4.5,0,1,1,.51-9Z"/><path class="cls-3" d="M1309.37,760.28l6.73.34a4.5,4.5,0,0,1-.44,9l-6.75-.34a4.5,4.5,0,0,1,.46-9Z"/><path class="cls-3" d="M1418.49,258.32q3.26-1.06,6.52-2.07a4.5,4.5,0,0,1,2.63,8.6c-2.12.64-4.23,1.32-6.33,2a4.5,4.5,0,0,1-2.82-8.54Z"/><path class="cls-3" d="M1399,763.12l6.72,0a4.5,4.5,0,0,1,0,9l-6.76,0a4.5,4.5,0,0,1,.08-9Z"/><path class="cls-3" d="M1397.12,266.21c2.11-.86,4.22-1.7,6.35-2.52a4.5,4.5,0,0,1,4.75,7.42,4.33,4.33,0,0,1-1.52,1q-3.1,1.2-6.18,2.46a4.49,4.49,0,1,1-3.4-8.32Z"/><path class="cls-3" d="M1376.62,762.78c2.24.05,4.48.1,6.72.13a4.49,4.49,0,0,1,3.05,7.72,4.42,4.42,0,0,1-3.21,1.27l-6.76-.13a4.5,4.5,0,0,1,.2-9Z"/><path class="cls-3" d="M1386.33,280.76c-2,.95-4,1.91-6,2.9a4.5,4.5,0,0,1-4-8.06q3.06-1.52,6.16-3a4.49,4.49,0,0,1,5,7.29A4.21,4.21,0,0,1,1386.33,280.76Z"/><path class="cls-3" d="M995,743.19l6.76.08a4.49,4.49,0,0,1-.11,9l-6.73-.07a4.5,4.5,0,1,1,.08-9Z"/><path class="cls-3" d="M1107.52,747.27l6.75.4a4.49,4.49,0,1,1-.54,9l-6.72-.39a4.5,4.5,0,0,1,.51-9Z"/><path class="cls-3" d="M1062.56,745l6.75.29a4.49,4.49,0,1,1-.4,9l-6.73-.29a4.49,4.49,0,1,1,.38-9Z"/><path class="cls-3" d="M1085.05,746.05l6.74.35a4.5,4.5,0,0,1,4.26,4.73,4.58,4.58,0,0,1-1.36,3,4.49,4.49,0,0,1-3.37,1.26l-6.73-.35a4.5,4.5,0,0,1,.46-9Z"/><path class="cls-3" d="M1242.12,756.26l6.72.45a4.49,4.49,0,1,1-.59,9l-6.73-.45a4.5,4.5,0,1,1,.6-9Z"/><path class="cls-3" d="M1040.06,744.15l6.75.23a4.5,4.5,0,0,1-.32,9l-6.73-.24a4.49,4.49,0,1,1,.3-9Z"/><path class="cls-3" d="M1017.53,743.54l6.76.15a4.5,4.5,0,1,1-.23,9l-6.72-.16a4.49,4.49,0,1,1,.19-9Z"/><path class="cls-3" d="M1130,748.63l6.73.43a4.49,4.49,0,1,1-.57,9l-6.73-.43a4.49,4.49,0,0,1,.57-9Z"/><path class="cls-3" d="M1197.29,753.17l6.73.47a4.5,4.5,0,1,1-.63,9l-6.72-.47a4.5,4.5,0,1,1,.62-9Z"/><path class="cls-3" d="M1219.71,754.73l6.72.46a4.5,4.5,0,1,1-.61,9l-6.73-.46a4.5,4.5,0,1,1,.62-9Z"/><path class="cls-3" d="M1152.43,750.09l6.73.45a4.5,4.5,0,1,1-.6,9l-6.72-.45a4.49,4.49,0,1,1,.59-9Z"/><path class="cls-3" d="M1174.87,751.61l6.73.47a4.5,4.5,0,0,1-.63,9l-6.72-.47a4.5,4.5,0,0,1,.62-9Z"/><path class="cls-66" d="M1365,1395.93a4.38,4.38,0,0,1,.1-1c5-20,25.62-30.19,25.62-30.19l9.9.78c5.69,17.59,9.36,26.18,8.45,31,0,.13-.07.26-.11.39A234.86,234.86,0,0,1,1365,1395.93Z"/><path class="cls-67" d="M1408.92,1396.88a4.29,4.29,0,0,1-3.14,3.18c-11.61,2.44-30.08.47-37.83-.54a3.61,3.61,0,0,1-3-3.59A234.86,234.86,0,0,0,1408.92,1396.88Z"/><path class="cls-68" d="M1382.53,1349.33l4.33,20.86a3.41,3.41,0,0,0,2.92,2.81,28.83,28.83,0,0,0,6.71-.1,4.3,4.3,0,0,0,3.4-5l-3-18.53Z"/><path class="cls-69" d="M1493,1396.71c-10.57-.3-16-1.54-18.87-2.7,0,1.06,0,2.12,0,3.23a2.1,2.1,0,0,0,2,2.13l58-.38a2.65,2.65,0,0,0,2.13-3.86C1528.77,1395.76,1509.38,1397.17,1493,1396.71Z"/><path class="cls-70" d="M1536.38,1395.13a2.64,2.64,0,0,0-.23-.44c-5.12-7.16-18.18-21.42-44-27.61l-12.38-.39s-5.52,9.58-5.62,27.32c2.83,1.16,8.3,2.4,18.87,2.7C1509.38,1397.17,1528.77,1395.76,1536.38,1395.13Z"/><path class="cls-71" d="M1477.49,1347.93c.14.92,1.84,14.94,2.49,20.38a2.69,2.69,0,0,0,2.27,2.43,27.86,27.86,0,0,0,8.51-.13,3.65,3.65,0,0,0,2.77-3.67v-22Z"/><path class="cls-72" d="M1390.8,1075.33s-19.81,176.06-8.81,286.1c0,0,13.21,0,19.81-2.2,0,0,20.58-172.14,27.24-221.41a1.66,1.66,0,0,1,3.27-.1c8.21,41.44,40.48,204,44.32,219.31,0,0,11,4.4,19.81,0,0,0-17.61-235.49-30.81-277.3Z"/><path class="cls-73" d="M1351.18,870.65s83.63-13.21,149.66,4.4l-4.4,68.23s-17.61,94.63-30.81,136.45c0,0-50.62,8.8-74.83-4.4,0,0-19.81-118.85-30.81-136.46C1360,938.87,1349,892.66,1351.18,870.65Z"/><path class="cls-74" d="M1409.28,810.51,1401,866.85s23.28,10.7,39.57-.45L1437,826.63Z"/><path class="cls-75" d="M1351.18,870.65s-129.85,140.85,23.11,194.77v-11S1317.07,1006,1361.09,940C1361.09,940,1355.58,877.25,1351.18,870.65Z"/><path class="cls-76" d="M1375.39,1055.52s19.81-13.21,28.61-8.8,8.81,11,8.81,11-4.41,8.8-11,6.6-22,2.2-28.61,0C1373.19,1064.32,1371,1055.52,1375.39,1055.52Z"/><path class="cls-77" d="M1500.84,875.05s135.35,136.45-17.61,190.37v-11S1540.45,1006,1496.44,940C1496.44,940,1492,886.06,1500.84,875.05Z"/><path class="cls-78" d="M1482.13,1055.52s-19.81-13.21-28.61-8.8-8.8,11-8.8,11,4.4,8.8,11,6.6,22,2.2,28.61,0C1484.33,1064.32,1486.53,1055.52,1482.13,1055.52Z"/><path class="cls-79" d="M1433.62,769.11c.56.53,23.75,46.08,23.75,46.08l-26.28,12.69L1402.69,788S1424.19,760.24,1433.62,769.11Z"/><path class="cls-80" d="M1414.32,789.08a4.19,4.19,0,0,0,.32,3.68l13.11,21.86a3.85,3.85,0,0,0,.72.89c1.56,1.46,6.9,5.68,11-.07,3.52-4.9,6.82-9.36,10.36-11.2a4.19,4.19,0,0,1,5.66,1.86,156.56,156.56,0,0,1,9,21.29,4.18,4.18,0,0,1-2.43,5.12c-5.32,2.15-15.84,6-25.18,7.34a4.17,4.17,0,0,1-4-1.69c-4-5.5-15.34-20.87-19.2-24.72-3.59-3.58-10.22-2.23-13.2-1.37a4.23,4.23,0,0,1-3.35-.44c-3-1.83-8.32-6.37-3.48-14.06a4.2,4.2,0,0,0-1.3-5.7c-3.38-2.23-7.05-6.4-3.55-13.16s9.86-7.46,14.16-6.94a4.34,4.34,0,0,0,4.57-2.54,2.76,2.76,0,0,1,2.16-1.7,4.07,4.07,0,0,0,3.3-4.78c-.76-3.88-.19-8.91,6-12.31,11.35-6.23,21.28,3.93,23.81,12.51s-10.16,14.64-18.14,15.65C1418.83,779.34,1415.61,785.74,1414.32,789.08Z"/><path class="cls-81" d="M1418.63,821.46s-5-14.76-11.5-14.21-11.53,7-3.53,14.2C1413.55,830.44,1418.63,821.46,1418.63,821.46Z"/><polygon class="cls-7" points="1299.76 911.68 1430.03 960.97 1432.31 1137.72 1322.13 1102.46 1299.76 911.68"/><polygon class="cls-7" points="1562.67 911.68 1430.03 960.97 1430.12 1137.72 1540.29 1102.46 1562.67 911.68"/><polygon class="cls-3" points="1437.68 970.24 1556.16 925.94 1550.41 961.9 1437.68 995.06 1437.68 970.24"/><polygon class="cls-3" points="1439.91 1008.28 1477.83 995.06 1472.21 1110.24 1442.43 1121.48 1439.91 1008.28"/><polygon class="cls-3" points="1486.14 995.06 1545.82 974.25 1534.02 1064.96 1483.23 1075.33 1486.14 995.06"/><polygon class="cls-3" points="1482.63 1086.08 1532.08 1075.33 1532.08 1092.83 1482.63 1106.69 1482.63 1086.08"/><polygon class="cls-24" points="1417.45 970.24 1311.66 929.5 1313.61 949.73 1417.45 982.7 1417.45 970.24"/><polygon class="cls-24" points="1417.14 998.99 1315.44 970.24 1328.93 1095.07 1420.74 1121.48 1417.14 998.99"/><path class="cls-82" d="M1313.19,1042.54c-.56-1.29-11.12-19.91-3.47-26.71s11.31.76,10.78,9S1317.46,1052.26,1313.19,1042.54Z"/><path class="cls-83" d="M1550.3,1042.54c.56-1.29,11.13-19.91,3.47-26.71s-11.3.76-10.77,9S1546,1052.26,1550.3,1042.54Z"/></g></svg>